<svg xmlns="http://www.w3.org/2000/svg" width="703" height="703" viewBox="0 0 703 703">
<g>
<path d="M 445.00 559.00 C445.00,560.54 434.65,560.20 432.44,558.58 C430.60,557.24 430.50,555.74 430.50,530.66 C430.50,504.75 430.55,504.11 432.69,501.83 C434.96,499.43 435.63,499.04 450.00,491.96 C460.25,486.92 462.63,485.30 470.91,477.79 C474.43,474.59 477.55,472.22 477.84,472.50 C478.55,473.21 468.39,482.19 461.81,486.67 C458.89,488.66 452.00,492.46 446.50,495.10 C441.00,497.75 435.64,500.60 434.60,501.43 C431.67,503.76 431.07,510.51 431.68,534.00 C432.10,550.41 432.19,555.60 434.64,557.24 C435.77,558.00 437.42,558.00 439.84,558.00 L 440.19 558.00 C442.84,558.00 445.00,558.45 445.00,559.00 ZM 607.20 684.89 C600.89,686.21 568.00,686.39 568.00,685.10 C568.00,684.61 576.89,683.97 587.75,683.67 C598.61,683.37 609.08,682.82 611.00,682.45 C613.35,681.99 614.17,682.10 613.50,682.78 C612.95,683.33 610.12,684.28 607.20,684.89 ZM 325.96 364.34 C320.22,366.69 318.00,367.20 318.00,366.14 C318.00,365.60 319.69,364.61 321.75,363.94 C323.81,363.26 326.40,362.07 327.50,361.27 C329.63,359.74 328.98,359.75 318.00,361.42 C314.57,361.94 314.58,361.93 318.55,360.60 C324.15,358.72 333.00,357.59 333.00,358.75 C333.00,360.22 329.77,362.78 325.96,364.34 ZM 335.50 579.77 C332.61,582.69 329.00,583.61 329.00,581.43 C329.00,579.96 328.27,579.80 323.75,580.32 C320.86,580.66 317.38,581.16 316.00,581.45 C314.62,581.74 315.52,581.30 318.00,580.47 C320.48,579.64 325.88,578.69 330.00,578.36 L 337.50 577.76 ZM 328.84 473.37 C322.51,476.13 318.00,477.34 318.00,476.26 C318.00,475.84 320.56,474.57 323.68,473.44 C329.63,471.30 331.36,469.52 328.31,468.66 C327.31,468.38 328.04,468.23 329.92,468.32 C335.28,468.60 334.81,470.75 328.84,473.37 ZM 104.45 685.13 C105.00,685.64 103.75,685.95 101.45,685.88 C96.63,685.74 93.82,685.11 92.51,683.87 C91.25,682.66 103.13,683.92 104.45,685.13 Z" fill="rgb(248,217,85)"/>
<path d="M 685.70 384.50 C685.74,468.10 685.49,548.88 685.14,564.00 C685.11,565.07 685.09,565.59 685.07,565.59 C684.75,565.59 684.50,475.62 684.50,354.50 C684.50,243.27 684.68,168.14 684.93,168.14 C684.97,168.14 685.01,170.36 685.06,175.00 C685.36,206.62 685.65,300.90 685.70,384.50 ZM 574.65 684.25 C570.58,684.53 568.00,684.84 568.00,685.10 C568.00,685.69 574.74,685.97 582.70,685.98 C568.00,686.26 546.53,686.49 517.40,686.69 L 432.30 687.27 L 430.65 684.91 C429.24,682.90 429.00,679.44 429.00,661.28 C429.00,661.28 429.36,640.00 430.00,640.00 C430.63,640.00 431.00,647.60 431.00,660.81 C431.00,677.19 431.30,682.03 432.42,683.56 C433.79,685.44 435.53,685.49 494.67,685.32 C524.73,685.23 553.25,684.83 574.65,684.25 ZM 386.00 174.88 C392.33,175.22 375.00,175.50 347.50,175.50 C320.00,175.50 301.33,175.21 306.00,174.85 C316.66,174.03 370.63,174.06 386.00,174.88 ZM 607.20 684.89 C609.28,684.46 611.32,683.85 612.52,683.33 C611.41,683.85 609.65,684.45 607.50,684.95 C606.94,685.08 605.74,685.20 603.87,685.32 C605.30,685.19 606.44,685.05 607.20,684.89 ZM 613.46 682.81 C613.47,682.80 613.49,682.79 613.50,682.78 C614.17,682.10 613.35,681.99 611.00,682.45 C610.58,682.53 609.76,682.62 608.62,682.71 C609.63,682.61 610.42,682.51 611.00,682.40 C613.72,681.91 614.31,682.21 613.46,682.81 Z" fill="rgb(250,231,158)"/>
<path d="M 445.00 559.00 C445.00,558.45 442.84,558.00 440.19,558.00 L 439.84 558.00 C437.42,558.00 435.77,558.00 434.64,557.24 C432.19,555.60 432.10,550.41 431.68,534.00 C431.07,510.51 431.67,503.76 434.60,501.43 C435.64,500.60 441.00,497.75 446.50,495.10 C452.00,492.46 458.89,488.66 461.81,486.67 C468.39,482.19 478.55,473.21 477.84,472.50 C477.65,472.32 476.28,473.25 474.37,474.80 L 479.45 470.13 L 479.83 462.70 L 479.85 462.30 C480.05,458.29 480.18,455.76 479.04,454.12 C477.04,451.28 471.20,451.13 455.22,450.58 C439.71,450.05 433.93,449.51 432.25,448.41 C430.02,446.97 430.00,446.72 430.01,423.73 C430.01,410.95 430.47,398.86 431.03,396.85 C432.43,391.78 437.70,387.43 450.02,381.18 C472.90,369.58 481.42,361.11 480.80,350.59 C480.36,343.15 478.54,342.42 457.01,340.98 C447.40,340.34 438.68,339.36 437.63,338.80 C434.77,337.27 435.96,329.08 441.39,313.00 C450.00,287.50 456.00,275.80 469.63,258.00 C477.61,247.57 476.99,248.22 502.11,223.70 C511.80,214.24 520.51,205.27 521.47,203.76 C523.85,200.02 522.84,196.77 518.66,194.78 C512.81,191.99 494.87,187.20 480.39,184.56 C449.09,178.86 428.79,176.96 388.00,175.90 C380.35,175.70 372.80,175.56 365.41,175.45 C381.97,175.36 390.80,175.14 386.00,174.88 C370.63,174.06 316.66,174.03 306.00,174.85 C302.86,175.09 310.25,175.30 323.77,175.41 C294.83,175.79 270.63,177.04 255.24,179.08 C250.98,179.64 244.12,180.50 240.00,180.98 C230.23,182.12 209.99,185.66 203.00,187.44 C199.98,188.21 193.00,190.57 187.50,192.69 C177.70,196.47 177.49,196.61 177.17,200.00 C176.86,203.23 177.48,204.04 187.14,212.97 C207.23,231.56 225.56,250.58 230.80,258.30 C251.17,288.28 264.33,323.26 269.05,360.00 C270.54,371.57 271.76,373.38 277.41,372.43 C279.61,372.06 284.36,370.64 287.96,369.28 C294.91,366.65 308.26,362.98 318.57,360.59 L 318.55 360.60 C314.58,361.93 314.57,361.94 318.00,361.42 C328.98,359.75 329.63,359.74 327.50,361.27 C326.40,362.07 323.81,363.26 321.75,363.94 C319.69,364.61 318.00,365.60 318.00,366.14 C318.00,366.54 318.31,366.71 318.99,366.66 C318.60,366.75 318.21,366.84 317.81,366.92 C313.03,367.90 279.91,379.37 270.50,383.31 C262.82,386.51 246.91,395.52 237.12,402.20 C232.93,405.06 228.14,408.32 226.48,409.45 C221.69,412.71 212.36,422.29 211.58,424.75 C208.87,433.29 222.99,438.36 249.71,438.45 C263.75,438.49 266.16,438.73 267.67,440.24 C269.18,441.75 269.49,444.78 269.96,462.24 L 270.50 482.50 L 273.00 482.16 C277.95,481.47 314.17,472.39 324.23,469.30 C325.55,468.90 326.77,468.61 327.87,468.42 C327.83,468.48 327.97,468.56 328.31,468.66 C331.36,469.52 329.63,471.30 323.68,473.44 C320.56,474.57 318.00,475.84 318.00,476.26 C318.00,476.53 318.27,476.66 318.78,476.65 C307.40,478.82 282.00,487.98 266.50,495.55 C239.06,508.93 231.41,513.69 222.96,522.63 C210.55,535.77 209.64,538.48 216.25,542.68 C223.49,547.28 231.85,549.04 250.22,549.82 C261.61,550.31 267.35,550.95 268.22,551.82 C269.13,552.72 269.65,558.45 270.00,571.47 C270.27,581.57 270.85,590.19 271.28,590.62 C272.79,592.12 292.77,587.76 315.95,580.86 C319.50,579.80 325.80,578.66 329.95,578.32 L 337.50 577.70 L 337.45 577.76 L 330.00 578.36 C325.88,578.69 320.48,579.64 318.00,580.47 C315.52,581.30 314.62,581.74 316.00,581.45 C317.38,581.16 320.86,580.66 323.75,580.32 C328.27,579.80 329.00,579.96 329.00,581.43 C329.00,582.20 329.46,582.59 330.17,582.63 L 330.15 582.63 C324.15,583.76 274.06,600.91 266.55,604.41 C250.91,611.70 227.76,627.26 217.90,637.09 C212.48,642.50 211.21,646.14 213.51,649.65 C217.88,656.33 228.57,659.00 250.92,659.00 C266.87,659.00 266.96,659.01 268.57,661.47 C270.60,664.57 270.31,683.09 268.20,685.20 C266.65,686.75 245.12,686.92 155.00,686.07 C128.26,685.82 113.33,685.67 104.58,685.40 C104.60,685.31 104.56,685.22 104.45,685.13 C103.13,683.92 91.25,682.66 92.51,683.87 C92.79,684.13 93.13,684.36 93.54,684.57 C91.83,684.24 90.89,683.82 89.67,683.25 C87.01,682.01 84.13,681.00 83.27,681.00 C81.58,681.00 67.61,673.62 59.47,668.43 C52.80,664.17 39.70,651.86 34.83,645.28 C29.98,638.71 21.71,622.32 19.56,615.00 C18.67,611.97 17.47,606.35 16.89,602.50 C15.44,592.88 15.65,114.14 17.11,101.50 C18.57,88.79 20.58,81.65 25.16,72.82 C30.41,62.70 34.40,57.22 42.66,48.71 C57.43,33.53 73.80,24.33 95.24,19.20 L 106.50 16.50 L 347.50 16.50 C361.86,16.50 375.39,16.50 388.14,16.50 C582.27,16.48 596.68,16.48 609.79,20.62 C611.70,21.22 613.59,21.91 616.00,22.70 C647.11,32.92 667.51,52.70 677.67,82.50 C680.33,90.28 682.99,105.06 683.00,112.05 C683.00,114.55 683.48,117.08 684.07,117.67 C684.39,117.99 684.69,137.53 684.94,168.25 C684.94,168.18 684.93,168.14 684.93,168.14 C684.68,168.14 684.50,243.27 684.50,354.50 C684.50,465.65 684.71,550.57 684.99,563.80 C683.75,602.07 681.85,612.66 673.95,629.50 C664.95,648.67 645.56,668.56 627.79,676.87 C624.10,678.59 620.83,680.00 620.53,680.00 C620.23,680.00 618.07,680.88 615.74,681.96 C614.64,682.47 613.65,682.92 612.58,683.31 C612.99,683.13 613.30,682.96 613.46,682.81 C614.31,682.21 613.72,681.91 611.00,682.40 C610.42,682.51 609.63,682.61 608.62,682.71 L 608.62,682.71 C604.51,683.05 596.25,683.44 587.75,683.67 C582.74,683.81 578.14,684.02 574.65,684.25 C553.25,684.83 524.73,685.23 494.67,685.32 C435.53,685.49 433.79,685.44 432.42,683.56 C431.30,682.03 431.00,677.19 431.00,660.81 C431.00,647.60 430.63,640.00 430.00,640.00 C430.61,640.00 431.01,635.41 431.01,628.25 C431.02,621.79 431.31,615.46 431.65,614.19 C432.11,612.45 435.38,610.31 444.88,605.51 C462.14,596.79 466.36,593.74 473.68,584.72 C479.55,577.50 480.00,576.59 480.00,571.97 C480.00,566.55 478.20,563.85 473.21,561.81 C471.72,561.20 462.08,560.43 451.80,560.10 C448.64,560.00 445.91,559.89 443.57,559.77 C444.45,559.61 445.00,559.36 445.00,559.00 ZM 685.70 384.50 C685.68,347.75 685.61,308.93 685.51,274.28 C685.90,381.68 685.92,511.60 685.31,550.95 C685.57,521.39 685.73,453.92 685.70,384.50 Z" fill="rgb(253,199,20)"/>
</g>
</svg>